PathFileType	4	(X/Y/Z)	/Users/niels/Desktop/University/Third Semester/Perception and Action/Exam/Gymnastics Motion Tracking/Code for Gym Tracking/Analyzed Data/Webcam_Backflip/id2_2_pure_Sports2D/id2_2_pure_Sports2D_px_person00.trc
DataRate	CameraRate	NumFrames	NumMarkers	Units	OrigDataRate	OrigDataStartFrame	OrigNumFrames
29.87551867219917	29.87551867219917	7	22	m	29.87551867219917	60	241
Frame#	Time	Hip			RHip			RKnee			RAnkle			RBigToe			RSmallToe			RHeel			LHip			LKnee			LAnkle			LBigToe			LSmallToe			LHeel			Neck			Head			Nose			RShoulder			RElbow			RWrist			LShoulder			LElbow			LWrist		
		X1	Y1	Z1	X2	Y2	Z2	X3	Y3	Z3	X4	Y4	Z4	X5	Y5	Z5	X6	Y6	Z6	X7	Y7	Z7	X8	Y8	Z8	X9	Y9	Z9	X10	Y10	Z10	X11	Y11	Z11	X12	Y12	Z12	X13	Y13	Z13	X14	Y14	Z14	X15	Y15	Z15	X16	Y16	Z16	X17	Y17	Z17	X18	Y18	Z18	X19	Y19	Z19	X20	Y20	Z20	X21	Y21	Z21	X22	Y22	Z22
60	2.0083333333333333	0.9643527612754874	-0.5619603074428395	0.0	0.9642120333119641	-0.5604769859704071	0.0	0.9752897466833187	-0.6737157481191065	0.0	0.9437655298080417	-0.7929795283517821	0.0	0.9748594798015408	-0.8181400282954089	0.0	0.9665157839291616	-0.8223234041192973	0.0	0.93375629931627	-0.8106609115379756	0.0	0.9693728924809798	-0.5602913309389368	0.0	0.9750100495125953	-0.6742009644608921	0.0	0.9465963155652016	-0.7864161202459307	0.0	0.9834248309063252	-0.8107502204638894	0.0	0.977030430592724	-0.806799820103814	0.0	0.9301336631372934	-0.798814729715292	0.0	0.973835502377781	-0.40130731237893913	0.0	1.0143268421004288	-0.3273878564313693	0.0	1.005793074336869	-0.36945305479799034	0.0	0.963901971886299	-0.4053600554276798	0.0	0.976355158314695	-0.32358346794697956	0.0	0.9935893616717647	-0.2589605789949441	0.0	0.9707240510035395	-0.40747713244612643	0.0	0.9872660671941296	-0.3303992753463845	0.0	0.9981040871112166	-0.2644266790314951	0.0
61	2.0418055555555554	0.9642025163280544	-0.5617624202445374	0.0	0.9637547159671932	-0.5601979364388505	0.0	0.974594062841959	-0.6737641630542217	0.0	0.9442945419723455	-0.7931629673435269	0.0	0.9775315193701479	-0.8189747935613102	0.0	0.9695511745858553	-0.8230225490571866	0.0	0.934817461639755	-0.8119055645837026	0.0	0.9693399897902251	-0.5601616362793864	0.0	0.9746089522129011	-0.6745114469234599	0.0	0.9470916484116347	-0.7868330044022015	0.0	0.9850168205945165	-0.8112694995251805	0.0	0.9785111909639715	-0.8075015792958814	0.0	0.9307173849312677	-0.7995168190490661	0.0	0.9752262558377833	-0.40079763827509396	0.0	1.0166791795091425	-0.32671910908331236	0.0	1.0072731088609765	-0.369134100551743	0.0	0.965850864923976	-0.4041759656098991	0.0	0.9811953458972994	-0.3223832586315827	0.0	1.0002845034419672	-0.2579981098659405	0.0	0.9720500216681105	-0.4066655607846139	0.0	0.9906735738629092	-0.3293045043939256	0.0	1.0042266854680255	-0.26383745586027507	0.0
62	2.075277777777778	0.9636278361544407	-0.5609997998966066	0.0	0.962881381420852	-0.5595846427967869	0.0	0.9739260290437264	-0.6736109996766785	0.0	0.9444460547889839	-0.7929216620252557	0.0	0.9803216112873555	-0.8190005610087308	0.0	0.9727876392774832	-0.8228335496824832	0.0	0.9355890605994646	-0.8127348954055824	0.0	0.9687701121940434	-0.5595830499542417	0.0	0.9741608959010603	-0.6745731956350879	0.0	0.9472141757158368	-0.7868698939263424	0.0	0.9866282848311985	-0.8111598265803158	0.0	0.9801198324992078	-0.8074101017682076	0.0	0.9312324925798684	-0.7999089826116738	0.0	0.9762784583807371	-0.4002375940717749	0.0	1.0184806673464677	-0.3256864632567977	0.0	1.0086059303757995	-0.3681536765779133	0.0	0.9677364084392664	-0.4027576549754232	0.0	0.9874576771777274	-0.3220088274178542	0.0	1.009205028875412	-0.25787371039537316	0.0	0.9732961980143501	-0.40535964650751255	0.0	0.9948051141709813	-0.3289297662251335	0.0	1.0114622629646637	-0.26417768116403867	0.0
63	2.10875	0.9623706455119934	-0.5594371207000615	0.0	0.9614489710208514	-0.5584286734715516	0.0	0.9735459204105614	-0.6731213361288275	0.0	0.9442572196421809	-0.7921177848193316	0.0	0.9827326613079298	-0.8180435684596808	0.0	0.97555218329793	-0.8215739696280626	0.0	0.9358467594475579	-0.8128047444677577	0.0	0.967478668707303	-0.5583094884733072	0.0	0.9738031705497401	-0.6741553935647724	0.0	0.9469878016618126	-0.7863350395239332	0.0	0.9878778171145912	-0.8102870858365439	0.0	0.9815745296899494	-0.8064534452735181	0.0	0.9316316353494313	-0.799793806071284	0.0	0.9769551442939379	-0.3995358328997233	0.0	1.019721542481978	-0.32447114889913004	0.0	1.0098381961516916	-0.36654076078599984	0.0	0.9693955315507765	-0.4011785252215358	0.0	0.9949143458395862	-0.32300759950929503	0.0	1.0204488010840127	-0.25931906859086384	0.0	0.974357118906227	-0.40358523370533067	0.0	0.9993815865160178	-0.32980818965497327	0.0	1.0194914269420077	-0.26620185349963194	0.0
64	2.1422222222222222	0.9602772574445535	-0.5570848178483623	0.0	0.9592858939117469	-0.556646910162897	0.0	0.9737208973317649	-0.6721377353301594	0.0	0.9438693144728365	-0.7906377423834304	0.0	0.9843339521513508	-0.8159941687895328	0.0	0.9772096022252	-0.8191746041660011	0.0	0.9354268299542782	-0.8117625831508168	0.0	0.9653373748502887	-0.5562338926265301	0.0	0.9737245565374046	-0.6730786035086747	0.0	0.9465378153056797	-0.7850189293663408	0.0	0.98844737436619	-0.8084879194547031	0.0	0.9826065643345726	-0.804553671124983	0.0	0.931782341008277	-0.7988937526808442	0.0	0.9773078498844417	-0.39864835199086857	0.0	1.0205693334522044	-0.32345772939785333	0.0	1.0111609916733337	-0.36464016887126216	0.0	0.9707424669048202	-0.3995802487856733	0.0	1.0032734357189597	-0.32597042069890775	0.0	1.0339510478553837	-0.263162868454385	0.0	0.9750995922345481	-0.4016067381404689	0.0	1.0038966040360757	-0.33257867799572993	0.0	1.0277790709272392	-0.2707962666631269	0.0
65	2.1756944444444444	0.9573832150767015	-0.5542409981540177	0.0	0.9562639579259419	-0.5543534480261021	0.0	0.9746466297144571	-0.6705978892543984	0.0	0.9434016469940214	-0.7884368186684548	0.0	0.9848853384139058	-0.8128640613173505	0.0	0.9773907729173652	-0.8157124180814013	0.0	0.9343136899748545	-0.8093825413266907	0.0	0.9624019096567773	-0.5534829778732786	0.0	0.9741592425731768	-0.6713213152932368	0.0	0.946083933205542	-0.7827312689026871	0.0	0.9882562279850584	-0.8056277957824691	0.0	0.983149106016259	-0.8016284005557223	0.0	0.931623731278546	-0.7968926844148096	0.0	0.9774334104134549	-0.39772473132092956	0.0	1.0212936519907228	-0.3232186128466169	0.0	1.0127558934043868	-0.3631327285229758	0.0	0.9717601462263049	-0.39827079641747287	0.0	1.012258052106142	-0.33136043042723345	0.0	1.0493673796266503	-0.270195882747042	0.0	0.9754104497100239	-0.3999073475608362	0.0	1.0078689311915394	-0.3377309136426168	0.0	1.0357889554147417	-0.27868244535066045	0.0
66	2.2091666666666665	0.9539041811586799	-0.5513919180546857	0.0	0.9524531538799011	-0.5518360538127426	0.0	0.9763563861066188	-0.6686282665848733	0.0	0.9428726361196025	-0.7856101590240043	0.0	0.9844191607854392	-0.8088733950247421	0.0	0.976160973518734	-0.8114773626469006	0.0	0.9326458591185643	-0.8057560220218182	0.0	0.9589213865942132	-0.550422764661542	0.0	0.9752696285219852	-0.6690325787826658	0.0	0.9458366720890501	-0.7794367851882301	0.0	0.9874741120733089	-0.8017423717117256	0.0	0.9833262632829645	-0.797731274169967	0.0	0.9312884025162139	-0.7936375497544988	0.0	0.9774894312232257	-0.39716610406177105	0.0	1.0221722910769955	-0.32436209829101414	0.0	1.014689723405749	-0.36291409585705264	0.0	0.972523501345733	-0.39773180827168597	0.0	1.0215498192467467	-0.3394316784806299	0.0	1.0659567229909463	-0.2811128900553094	0.0	0.9752591596162629	-0.3990619089820988	0.0	1.0112707189977537	-0.34542710838765955	0.0	1.0435140826693157	-0.29025963111395764	0.0
